<svg xmlns="http://www.w3.org/2000/svg" width="256" height="256" style=""><rect id="backgroundrect" width="100%" height="100%" x="0" y="0" fill="none" stroke="none" class="" style=""/>
 <!-- Generator: Sketch 56.3 (81716) - https://sketch.com -->

 <title>Button/Primary/Pay/Standalone/Standard width</title>
 <desc>Created with Sketch.</desc>
 <g style="">
  <title>background</title>
  <rect fill="none" id="canvas_background" height="48" width="86" y="-1" x="-1"/>
 </g>
 <g style="" class="currentLayer">
  <title>Layer 1</title>
  
 <rect fill="#002c74" stroke-dashoffset="" fill-rule="evenodd" id="svg_16" x="0.22346305860439558" y="0.2055569406218946" width="255.90722710172525" height="255.79444725449991" style="color: rgb(0, 44, 116);" class="" fill-opacity="1"/><g fill-rule="evenodd" fill="none" id="Button/Primary/Pay/Standalone/Standard-width" class="">
   <g stroke="null" id="Elements/Buttons/Button">
    <rect stroke="null" x="1.2920067911098343" y="52.54642610012088" rx="4" height="142.25324062018072" width="254.2776540422468" fill="#002C74" id="bg"/>
    <g stroke="null" id="crypto-pay-text">
     <g stroke="null" fill="#FFFFFF" id="Pay">
      <path stroke="null" id="Fill-1" d="m153.49280949916493,111.95941457548959 c0,10.197719914775615 -8.237440622937727,15.43029791834639 -17.976008567519912,15.43029791834639 l-11.110600450363828,0 l0,16.56885729296016 l-5.162518282565339,0 l0,-46.95800218136423 l17.12592691044715,0 c10.327733449484102,0 17.12320039000193,5.6350657662504995 17.12320039000193,14.958846970057674 m-5.2270656904967465,0.20125869938576024 c0,-6.776410933493082 -4.904269378656119,-10.263867671663997 -12.291598708429287,-10.263867671663997 l-11.567944618957709,0 l0,20.66284628582537 l11.309666078956692,0 c7.5810308257509815,0 12.549877248430303,-4.160136749753593 12.549877248430303,-10.398978614161376 m23.531293974655927,1.2075225602227642 c-3.9895810414683552,0 -7.126353905418728,1.0724116177253924 -10.265853289814322,2.5500967907593126 l-1.5011273216444576,-4.226284506641977 c3.723241484498864,-1.745121265399868 7.387329329773168,-2.8864664326424463 12.288901824075863,-2.8864664326424463 c9.216676368056897,0 14.379194650622233,4.830060604799258 14.379194650622233,13.955339265757685 l0,21.197688834465453 l-4.83699545027949,0 l0,-5.232548367478981 c-2.3512682509008127,3.15387288891659 -6.273605000084338,5.97140577204184 -12.221657531791031,5.97140577204184 c-6.276272248345966,0 -12.617121540715132,-3.6225380445764936 -12.617121540715132,-10.867643769821276 c0,-7.3801870316503635 5.8835051237752864,-11.270131532500999 14.446468578998862,-11.270131532500999 c4.3124069894007775,0 7.387329329773168,0.6037464620654843 10.392310493507301,1.4749290164969118 l0,-1.2075225602227642 c0,-6.23884186440778 -3.7259680049440833,-9.458862510212752 -10.064120412959827,-9.458862510212752 m0.1937014959778135,13.015252797900862 c4.118735129514762,0 7.451906373796371,0.7388277684710647 9.934966324913422,1.4749290164969118 l0,3.3551315883023496 c0,5.499984459844923 -5.097941238542135,9.392685117232574 -11.306969194603267,9.392685117232574 c-4.576049662016848,0 -8.498386411200373,-2.5500967907593126 -8.498386411200373,-6.977669632878842 c0,-4.427543206027737 3.5322368728744746,-7.245076089152987 9.870389280890217,-7.245076089152987 zm30.995321509996813,29.8893025641749 l4.4523189787690844,-11.868395317584248 l-15.560222544779487,-34.99862406196665 l5.558011927581236,0 l12.286204939722438,28.914186235815365 l10.849625026009386,-28.914186235815365 l5.361613547249998,0 l-18.55711305545335,46.867019379550904 l-4.390438819099307,0 z"/>
     </g>
     <g stroke="null" fill="#FEFEFE" id="Logo/Icon/White">
      <g stroke="null" id="Group">
       <path stroke="null" id="Fill-1" d="m33.29901599068997,106.15367455658671 l0,34.308103123122855 l29.55980849558841,17.156511357180484 l29.55334782757691,-17.156511357180484 l0,-34.308103123122855 l-29.55334782757691,-17.154851736039916 l-29.55980849558841,17.154851736039916 zm2.6017821348513115,32.80398255620702 l0,-31.293312413004298 l26.9580263607371,-15.65402077531342 l26.95965634578587,15.65402077531342 l0,31.293312413004298 l-26.95965634578587,15.647471199026528 l-26.9580263607371,-15.647471199026528 z" transform=""/>
       <polygon stroke="null" points="74.4422722632788,103.81072033044711 51.21586334725484,103.81072033044711 48.523305339944585,115.71493539854328 77.24196446896244,115.71493539854328 " id="Fill-2"/>
       <polygon stroke="null" points="55.336408255493865,132.0971400305625 55.336408255493865,124.18706505066075 48.45683476782719,119.79040273924966 40.67084229043425,125.60806961939579 51.28383727393597,144.16107210269365 55.52290111932902,144.16107210269365 60.536738540361824,139.46948315402915 60.536738540361824,137.11145421877154 " id="Fill-3"/>
       <polygon stroke="null" points="70.40226255885577,117.5110788370348 55.362288254390336,117.5110788370348 57.89597897981034,124.16150417818062 57.12436975405794,131.61366735469892 62.85639156283,131.61366735469892 68.64345306617983,131.5875989558699 67.92207356938056,124.16150417818062 " id="Fill-4"/>
       <polygon stroke="null" points="77.28242047080298,119.73664339523384 70.48213644045958,124.18706505066075 70.48213644045958,132.0971400305625 65.28333642443144,137.11145421877154 65.28333642443144,139.46948315402915 70.29568971538342,144.10895068462196 74.4811595473137,144.10895068462196 85.04242144729855,125.60806961939579 " id="Fill-5"/>
      </g>
     </g>
    </g>
   </g>
  </g><rect fill="#ffffff" stroke-dashoffset="" fill-rule="evenodd" id="svg_21" x="90" y="91" width="0" height="0" style="color: rgb(0, 44, 116);"/></g>
</svg>